<svg width="40" height="40" viewBox="0 0 40 40" fill="none" xmlns="http://www.w3.org/2000/svg">
<g id="vuesax/bold/arrow-right">
<g id="arrow-right">
<path id="Vector" d="M20.0007 3.33301C10.8007 3.33301 3.33398 10.7997 3.33398 19.9997C3.33398 29.1997 10.8007 36.6663 20.0007 36.6663C29.2007 36.6663 36.6673 29.1997 36.6673 19.9997C36.6673 10.7997 29.2007 3.33301 20.0007 3.33301ZM26.7173 20.883L21.7173 25.883C21.4673 26.133 21.1507 26.2497 20.834 26.2497C20.5173 26.2497 20.2007 26.133 19.9507 25.883C19.4673 25.3997 19.4673 24.5997 19.9507 24.1163L22.8173 21.2497H14.1673C13.484 21.2497 12.9173 20.683 12.9173 19.9997C12.9173 19.3163 13.484 18.7497 14.1673 18.7497H22.8173L19.9507 15.883C19.4673 15.3997 19.4673 14.5997 19.9507 14.1163C20.434 13.633 21.234 13.633 21.7173 14.1163L26.7173 19.1163C27.2007 19.5997 27.2007 20.3997 26.7173 20.883Z" fill="#E54649"/>
</g>
</g>
</svg>
