<svg width="26" height="24" viewBox="0 0 26 24" fill="none" xmlns="http://www.w3.org/2000/svg">
<g id="Star">
<path id="Star_2" d="M20.3986 14.9002C20.0748 15.214 19.9261 15.6677 19.9998 16.1127L21.1111 22.2627C21.2048 22.784 20.9848 23.3115 20.5486 23.6127C20.1211 23.9252 19.5523 23.9627 19.0861 23.7127L13.5498 20.8252C13.3573 20.7227 13.1436 20.6677 12.9248 20.6615H12.5861C12.4686 20.679 12.3536 20.7165 12.2486 20.774L6.71109 23.6752C6.43735 23.8127 6.12734 23.8615 5.8236 23.8127C5.08359 23.6727 4.58984 22.9677 4.71109 22.224L5.8236 16.074C5.89734 15.6252 5.74859 15.169 5.42484 14.8502L0.911095 10.4752C0.533595 10.109 0.402345 9.55899 0.574845 9.06274C0.742345 8.56774 1.16984 8.20649 1.68609 8.12524L7.89859 7.22399C8.37109 7.17524 8.78609 6.88774 8.99859 6.46274L11.7361 0.850244C11.8011 0.725244 11.8848 0.610244 11.9861 0.512744L12.0986 0.425244C12.1573 0.360244 12.2248 0.306494 12.2998 0.262744L12.4361 0.212744L12.6486 0.125244H13.1748C13.6448 0.173994 14.0586 0.455244 14.2748 0.875244L17.0486 6.46274C17.2486 6.87149 17.6373 7.15524 18.0861 7.22399L24.2986 8.12524C24.8236 8.20024 25.2623 8.56274 25.4361 9.06274C25.5998 9.56399 25.4586 10.114 25.0736 10.4752L20.3986 14.9002Z" fill="#F1C94C"/>
</g>
</svg>
